# xmcd
#
# Track frame offsets:
#	150
#	15915
#	27992
#	44725
#	60940
#	71060
#	81762
#	109252
#	134717
#	144410
#	156712
#
# Disc length: 2252
#
# Revision: 3
# Processed by: cddbd v1.5.1PL0 Copyright (c) Steve Scherf et al.
# Submitted via: CDex 1.51
# Normalized: r2:TDELIM( - ),TSWAP
#
DISCID=9c08ca0b
DTITLE=Various Artist - Old Fashioned Christmas Disc 3
DYEAR=2001
DGENRE=Country
TTITLE0=Vince Gill - What Child is This
TTITLE1=Clint Black - Til Santa's Gone
TTITLE2=Willie Nelson - Silent Night
TTITLE3=Sawyer Brown - It Wasn't His Child
TTITLE4=John Schneider - Joy To The World
TTITLE5=Jeff Foxworthy - Red Neck 12 Days of Christmas
TTITLE6=Dwight Yoakum - Santa Clause Is Back In Town
TTITLE7=Steve Wariner - Christmas Medley
TTITLE8=Johnny Tillotson - It's Not Christmas If You're Not Here
TTITLE9=John Denver - Jingle Bells
TTITLE10=Kenny Rogers - First Noel
EXTD=YEAR: 2001
EXTT0=
EXTT1=
EXTT2=
EXTT3=
EXTT4=
EXTT5=
EXTT6=
EXTT7=
EXTT8=
EXTT9=
EXTT10=
PLAYORDER=
